# xmcd CD database file
#
# Track frame offsets:
#	150
#	31766
#	59157
#	86479
#	108743
#	134397
#	169876
#	201204
#	225836
#	250950
#	273139
#	305982
#	333210
#
# Disc length: 4735 seconds
#
# Revision: 1
# Processed by: cddbd v1.5.2PL0 Copyright (c) Steve Scherf et al.
# Submitted via: CDex 1.70beta2
#
DISCID=b6127d0d
DTITLE=Karen Rose - Todesbräute CD 2
DYEAR=2010
DGENRE=Hörbuch
TTITLE0=Todesbräute 13
TTITLE1=Todesbräute 14
TTITLE2=Todesbräute 15
TTITLE3=Todesbräute 16
TTITLE4=Todesbräute 17
TTITLE5=Todesbräute 18
TTITLE6=Todesbräute 19
TTITLE7=Todesbräute 20
TTITLE8=Todesbräute 21
TTITLE9=Todesbräute 22
TTITLE10=Todesbräute 23
TTITLE11=Todesbräute 24
TTITLE12=Todesbräute 25
EXTD=gelesen von Nicole Engeln YEAR: 2010
EXTT0=
EXTT1=
EXTT2=
EXTT3=
EXTT4=
EXTT5=
EXTT6=
EXTT7=
EXTT8=
EXTT9=
EXTT10=
EXTT11=
EXTT12=
PLAYORDER=
